{
  "asset": {
    "version": "2.0",
    "generator": "ChatGPT GLTF Generator"
  },
  "scenes": [
    {
      "nodes": [
        0
      ]
    }
  ],
  "scene": 0,
  "nodes": [
    {
      "name": "MEDICAL",
      "mesh": 0,
      "scale": [
        2.8,
        2.2,
        2.0
      ],
      "extras": {
        "label": "Medical Bay / Health Facility",
        "category": "MEDICAL",
        "dims_m": [
          2.8,
          2.2,
          2.0
        ],
        "volume_efficiency": 0.9,
        "noise_class": "Quiet",
        "adjacency": {
          "avoid": [
            "WASTE",
            "TRASH_MGMT",
            "AIRLOCK"
          ],
          "prefer": [
            "COMMON_AREA"
          ]
        },
        "nasa_compliance_note": "Procedural fallback geometry; replace with CAD-accurate GLB when available."
      }
    }
  ],
  "meshes": [
    {
      "name": "MEDICAL_mesh",
      "primitives": [
        {
          "attributes": {
            "POSITION": 0,
            "NORMAL": 1,
            "TEXCOORD_0": 2
          },
          "indices": 3,
          "mode": 4,
          "material": 0
        }
      ]
    }
  ],
  "materials": [
    {
      "pbrMetallicRoughness": {
        "baseColorFactor": [
          0.9372549019607843,
          0.26666666666666666,
          0.26666666666666666,
          1.0
        ],
        "metallicFactor": 0.55,
        "roughnessFactor": 0.45
      },
      "doubleSided": false,
      "name": "MEDICAL_mat"
    }
  ],
  "buffers": [
    {
      "byteLength": 840,
      "uri": "MEDICAL.bin"
    }
  ],
  "bufferViews": [
    {
      "buffer": 0,
      "byteOffset": 0,
      "byteLength": 288,
      "target": 34962
    },
    {
      "buffer": 0,
      "byteOffset": 288,
      "byteLength": 288,
      "target": 34962
    },
    {
      "buffer": 0,
      "byteOffset": 576,
      "byteLength": 192,
      "target": 34962
    },
    {
      "buffer": 0,
      "byteOffset": 768,
      "byteLength": 72,
      "target": 34963
    }
  ],
  "accessors": [
    {
      "bufferView": 0,
      "byteOffset": 0,
      "componentType": 5126,
      "count": 24,
      "type": "VEC3",
      "min": [
        -0.5,
        -0.5,
        -0.5
      ],
      "max": [
        0.5,
        0.5,
        0.5
      ]
    },
    {
      "bufferView": 1,
      "byteOffset": 0,
      "componentType": 5126,
      "count": 24,
      "type": "VEC3"
    },
    {
      "bufferView": 2,
      "byteOffset": 0,
      "componentType": 5126,
      "count": 24,
      "type": "VEC2"
    },
    {
      "bufferView": 3,
      "byteOffset": 0,
      "componentType": 5123,
      "count": 36,
      "type": "SCALAR"
    }
  ]
}